PathFileType	4	(X/Y/Z)	C:/Users/beibeiliu/ov580/test_trc\sequence.28_training_dense_left.trc
DataRate	CameraRate	NumFrames	NumMarkers	Units	OrigDataRate	OrigDataStartFrame	OrigNumFrames
120	120	13	19	mm	120	1	333
Frame#	Time	ThumbCMC			ThumbMCP			ThumbIP			ThumbTip			IndexMCP			IndexPIP			IndexTip			MiddleMCP			MiddlePIP			MiddleTip			RingMCP			RingPIP			RingTip			PinkyMCP			PinkyPIP			PinkyTip			BackHand1			BackHand2			BackHand3	
		X0	Y0	Z0	X1	Y1	Z1	X2	Y2	Z2	X3	Y3	Z3	X4	Y4	Z4	X5	Y5	Z5	X6	Y6	Z6	X7	Y7	Z7	X8	Y8	Z8	X9	Y9	Z9	X10	Y10	Z10	X11	Y11	Z11	X12	Y12	Z12	X13	Y13	Z13	X14	Y14	Z14	X15	Y15	Z15	X16	Y16	Z16	X17	Y17	Z17	X18	Y18	Z18	
0	0	-152.636	11.3054	49.6249	-137.629	-4.61408	31.5699	-122.925	-10.547	13.4592	-112.227	-18.0758	-5.35529	-161.477	14.5367	-16.935	-153.818	11.4427	-37.0975	-147.364	10.3853	-63.2197	-181.642	7.41038	-24.8968	-181.558	3.1203	-48.5995	-182.346	-3.30827	-73.0632	-198.074	-0.696413	-20.1985	-199.635	-3.85908	-38.0266	-201.203	-8.28045	-58.5084	-218.027	-13.4634	-5.50407	-220.296	-18.0903	-19.4835	-223.012	-19.9828	-40.3409	-203.194	12.6174	21.3725	-206.917	18.1826	51.5304	-181.907	26.1054	35.2421	
1	0.00833333	-154.732	10.1318	46.8522	-137.302	-3.80423	29.8037	-128.719	-11.4192	11.6709	-114.017	-18.9869	-5.53963	-162.628	13.7941	-19.1557	-156.03	10.6535	-42.2305	-150.01	8.27189	-65.086	-181.642	6.6431	-28.0282	-181.494	3.13974	-46.5575	-183.461	-3.63202	-73.4449	-203.239	-2.4006	-18.6005	-199.453	-4.97375	-38.9648	-202.099	-8.89372	-64.0076	-215.938	-12.7503	-2.41938	-222.943	-19.7718	-24.4623	-227.203	-20.5356	-38.5858	-205.969	10.7051	24.539	-206.634	19.0099	48.1544	-181.25	24.9534	32.9968	
2	0.0166667	-155.026	9.39623	48.5282	-139.539	-4.42981	32.1174	-124.759	-12.3391	9.27087	-116.508	-18.7099	-1.7231	-157.339	14.1964	-22.2615	-156.529	9.8484	-40.215	-147.287	9.72307	-60.7722	-184.413	6.50384	-24.9746	-181.997	2.40867	-47.9144	-181.194	-2.05115	-72.0764	-198.559	-0.739951	-17.0628	-199.988	-6.36417	-43.5676	-202.87	-10.259	-63.0955	-218.228	-12.7402	-3.83976	-222.841	-20.1418	-22.2023	-225.37	-22.5865	-39.0033	-206.84	11.1496	23.6274	-205.448	17.6533	47.9065	-182.863	24.2268	35.4688	
3	0.025	-151.539	9.84234	43.9912	-139.575	-5.09897	29.033	-126.49	-12.4723	11.0158	-115.242	-18.8268	0.0940835	-159.905	13.3609	-21.829	-152.129	11.8666	-43.0819	-152.166	7.991	-60.4264	-182.084	7.28787	-23.6064	-182.182	2.14402	-50.0832	-183.6	-3.23203	-72.8335	-198.231	-0.693769	-19.7897	-200.667	-6.33144	-42.2594	-200.298	-8.84112	-58.4261	-213.58	-11.8176	-3.4329	-219.23	-17.6052	-23.0505	-226.545	-20.8512	-38.8013	-204.424	10.3799	20.9194	-208.865	16.517	46.5573	-181.098	24.6676	32.5356	
4	0.0333333	-155.748	9.07869	47.5872	-137.736	-4.90938	27.5426	-123.59	-11.9216	12.9807	-112	-18.7658	-1.22873	-157.587	15.5669	-18.2278	-153.942	12.4502	-38.2403	-147.517	11.1252	-59.4085	-179.965	8.87056	-29.3317	-179.024	2.55921	-52.2206	-181.117	-1.20243	-71.4758	-202.042	-2.77189	-18.6655	-199.322	-5.19226	-43.8332	-201.695	-10.2771	-62.9254	-218.638	-14.2693	-4.72901	-217.603	-17.3964	-22.0195	-226.48	-21.2867	-39.2638	-205.48	11.9905	21.3597	-203.357	19.1283	45.4072	-181.282	23.7294	32.6159	
5	0.0416667	-154.824	9.52762	43.514	-138.718	-3.90159	28.1198	-125.666	-11.3305	8.58543	-111.829	-18.3957	-3.0122	-156.755	16.3082	-16.905	-155.514	11.3354	-42.6108	-147.548	10.9168	-59.6395	-183.281	7.06531	-28.1352	-179.945	4.03306	-49.5809	-183.611	-2.35455	-72.4947	-202.467	-2.18329	-18.7679	-202.003	-5.9297	-43.4256	-202.88	-9.74521	-59.9228	-216.836	-11.9059	-5.03441	-217.646	-16.6954	-20.1923	-225.724	-23.0654	-38.3281	-202.356	13.5429	24.9893	-205.408	18.0399	47.4473	-178.191	25.3498	34.2098	
6	0.05	-152.588	11.1195	43.9859	-136.177	-3.08793	27.455	-127.571	-11.6771	12.5757	-115.229	-17.3873	-2.97762	-159.848	15.7403	-22.346	-152.525	13.5472	-38.1872	-149.236	10.9069	-60.3446	-184.243	7.73732	-28.6799	-179.971	5.4461	-47.4001	-182.084	0.160911	-74.6539	-198.043	0.614925	-16.9531	-200.663	-4.37606	-40.7172	-199.858	-6.58272	-64.1644	-218.724	-12.7652	-4.87283	-221.036	-18.6237	-24.9108	-226.362	-21.7956	-40.0967	-200.86	12.5147	25.5335	-207.158	18.1642	49.0422	-182.143	26.6144	35.2511	
7	0.0583333	-153.273	12.3702	48.4991	-137.425	-2.61732	30.1696	-123.501	-9.25566	8.94814	-112.073	-16.1372	-3.05525	-159.136	18.0468	-21.1519	-151.054	14.4804	-42.994	-149.864	12.0622	-60.8218	-182.789	9.68561	-28.5367	-181.238	6.01761	-48.5593	-178.891	1.18312	-77.5442	-198.142	1.90816	-18.6092	-202.891	-4.58939	-41.3681	-201.872	-7.30438	-60.5912	-219.289	-11.3659	-7.74331	-219.553	-16.1775	-21.9768	-226.652	-21.0599	-43.0222	-206.245	11.9303	25.057	-206.994	18.5196	47.0462	-179.717	29.059	34.3717	
8	0.0666667	-153.54	11.6808	45.5948	-138.495	-2.69198	26.9762	-128.252	-9.34151	9.77216	-114.538	-15.9866	-7.77244	-159.563	19.4728	-18.7111	-152.649	15.9804	-43.9765	-144.278	14.0152	-64.7279	-182.584	12.1108	-25.1185	-183.714	6.32205	-52.1314	-181.393	2.10944	-74.9734	-200.313	2.4603	-20.2093	-202.526	-2.67304	-41.0894	-198.944	-5.13945	-63.5843	-218.562	-9.88269	-3.16406	-219.626	-14.2782	-21.0214	-227.565	-18.5656	-40.7587	-203.486	12.9925	23.5706	-207.673	18.2818	50.1561	-180.963	26.925	35.65	
9	0.075	-156.058	12.4558	46.9186	-135.148	-1.38165	27.8092	-124.158	-7.40387	11.9817	-117.691	-15.829	-4.76701	-158.634	20.9956	-19.7746	-156.142	17.5558	-39.7403	-148.885	15.6176	-62.6047	-181.57	14.2829	-27.5474	-180.256	10.6052	-50.2156	-180.641	4.34731	-73.6648	-197.79	5.23414	-21.6145	-203.732	-0.977075	-39.6042	-200.573	-4.62811	-61.7934	-214.392	-6.8686	-3.65541	-221.403	-13.7617	-23.5138	-225.702	-16.0888	-40.654	-206.66	13.5112	23.9914	-207.687	19.677	46.0496	-180.762	28.7679	36.4566	
10	0.0833333	-153.749	13.8804	44.8106	-137.531	-0.846362	27.6754	-126.018	-8.06395	9.08225	-114.734	-15.0087	-7.50261	-160.121	21.2412	-21.0259	-152.606	19.629	-40.2071	-148.17	16.8693	-64.6683	-182.21	15.331	-29.2856	-180.191	11.6858	-49.166	-183.327	5.23822	-73.6146	-202.913	3.50529	-19.635	-202.714	0.853895	-40.3853	-200.127	-1.37668	-63.6367	-214.458	-5.21986	-4.49083	-221.162	-9.93167	-23.6623	-226.003	-12.547	-40.5183	-206.274	14.7857	24.1929	-206.405	19.5919	45.186	-182.653	29.7036	35.2306	
11	0.0916667	-156.86	11.7825	47.2018	-135.324	-1.38886	29.0392	-124.982	-8.03134	9.86747	-119.375	-15.5886	-7.31428	-157.549	23.4684	-21.0335	-150.925	21.2584	-42.3318	-147.41	19.3527	-60.6806	-181.354	17.3911	-26.4734	-181.447	13.5199	-51.5755	-180.527	8.21727	-77.743	-201.216	6.66064	-18.2375	-199.335	4.53817	-40.5833	-201.773	0.847139	-60.7747	-215.058	-1.59522	-10.3508	-219.113	-5.84373	-22.6696	-229.875	-8.15943	-41.6938	-205.871	18.1659	21.9177	-208.668	21.3242	46.783	-178.26	29.4864	34.1238	
12	0.1	-156.709	12.6865	42.2955	-141.236	-3.24275	25.9266	-125.72	-10.4984	8.50679	-117.361	-17.3472	-8.86335	-155.224	25.1174	-22.0828	-147.568	23.4981	-41.0658	-144.073	21.4453	-59.5079	-178.379	19.9336	-29.0231	-179.222	15.3987	-53.6706	-180.067	11.0937	-74.9269	-202.651	9.79737	-20.7462	-198.172	8.28212	-45.0114	-200.321	4.11071	-63.9422	-217.578	-0.249794	-6.39837	-221.239	-2.74944	-22.6799	-229.899	-1.31346	-43.7363	-200.47	19.4419	20.204	-205.514	22.907	48.6169	-179.627	29.3905	36.0113	
